<svg width="36" height="36" viewBox="0 0 36 36" fill="none" xmlns="http://www.w3.org/2000/svg">
<path d="M13.5 25.5V27C13.5 27.5909 13.6164 28.1761 13.8425 28.7221C14.0687 29.268 14.4002 29.7641 14.818 30.182C15.2359 30.5998 15.732 30.9313 16.2779 31.1575C16.8239 31.3836 17.4091 31.5 18 31.5C18.5909 31.5 19.1761 31.3836 19.7221 31.1575C20.268 30.9313 20.7641 30.5998 21.182 30.182C21.5998 29.7641 21.9313 29.268 22.1575 28.7221C22.3836 28.1761 22.5 27.5909 22.5 27V25.5M27 13.5C27 18 30 25.5 30 25.5H6C6 25.5 9 19.5 9 13.5C9 8.598 13.098 4.5 18 4.5C22.902 4.5 27 8.598 27 13.5Z" stroke="#00C35D" stroke-width="1.5" stroke-linecap="round" stroke-linejoin="round"/>
</svg>
